<svg width="89" height="121" viewBox="0 0 89 121" fill="none" xmlns="http://www.w3.org/2000/svg">
<g opacity="0.7">
<path fill-rule="evenodd" clip-rule="evenodd" d="M51.7648 119.321C56.9217 121.298 62.7048 118.72 64.6816 113.563L86.6783 56.1809C88.6552 51.024 86.0772 45.2409 80.9203 43.2641L70.7201 39.354L59.5557 35.0743L48.3913 30.7946L38.2736 26.9161L37.4934 26.617C32.3365 24.6402 26.5534 27.2182 24.5766 32.3751L2.57985 89.7574C0.603014 94.9143 3.18099 100.697 8.33792 102.674L51.7648 119.321Z" fill="#FFAA4C"/>
<path d="M70.7201 39.354L80.9203 43.2641C86.0772 45.2409 88.6552 51.024 86.6783 56.1809L64.6816 113.563C62.7048 118.72 56.9217 121.298 51.7648 119.321L8.33792 102.674C3.18099 100.697 0.603014 94.9143 2.57985 89.7574L24.5766 32.3751C26.5534 27.2182 32.3365 24.6402 37.4934 26.617L38.2736 26.9161M70.7201 39.354C72.6971 32.1088 74.0857 16.795 63.8238 13.5015C53.5619 10.208 49.2597 23.6579 48.3913 30.7946M70.7201 39.354L59.5557 35.0743M48.3913 30.7946L59.5557 35.0743M48.3913 30.7946L38.2736 26.9161M59.5557 35.0743C63.4555 25.1612 68.9548 4.6408 59.7536 1.86375C50.5525 -0.913291 41.5998 17.4082 38.2736 26.9161" stroke="#FFAA4C" stroke-width="2" stroke-linecap="round" stroke-linejoin="round"/>
</g>
</svg>
