<svg width="25" height="25" viewBox="0 0 25 25" fill="none" xmlns="http://www.w3.org/2000/svg">
<g opacity="0.7" clip-path="url(#clip0_39_80)">
<path d="M23.4963 12.5002C23.4986 12.8206 23.4012 13.1338 23.2174 13.3963C23.0337 13.6588 22.7728 13.8576 22.4709 13.9651L16.2307 16.2307L13.9651 22.4709C13.8541 22.7699 13.6542 23.0278 13.3924 23.21C13.1305 23.3921 12.8192 23.4897 12.5002 23.4897C12.1813 23.4897 11.8699 23.3921 11.6081 23.21C11.3462 23.0278 11.1464 22.7699 11.0354 22.4709L8.76975 16.2307L2.52952 13.9651C2.23049 13.8541 1.97259 13.6542 1.79048 13.3924C1.60836 13.1305 1.51074 12.8192 1.51074 12.5002C1.51074 12.1813 1.60836 11.8699 1.79048 11.6081C1.97259 11.3462 2.23049 11.1464 2.52952 11.0354L8.76975 8.76975L11.0354 2.52952C11.1464 2.23049 11.3462 1.97259 11.6081 1.79048C11.8699 1.60836 12.1813 1.51074 12.5002 1.51074C12.8192 1.51074 13.1305 1.60836 13.3924 1.79048C13.6542 1.97259 13.8541 2.23049 13.9651 2.52952L16.2307 8.76975L22.4709 11.0354C22.7728 11.1428 23.0337 11.3416 23.2174 11.6041C23.4012 11.8666 23.4986 12.1798 23.4963 12.5002Z" fill="#FFAA4C"/>
</g>
<defs>
<clipPath id="clip0_39_80">
<rect width="25" height="25" fill="white"/>
</clipPath>
</defs>
</svg>
