<svg width="67" height="86" viewBox="0 0 67 86" fill="none" xmlns="http://www.w3.org/2000/svg">
<g opacity="0.7">
<path fill-rule="evenodd" clip-rule="evenodd" d="M36.9912 82.5198C32.2945 85.4255 26.1316 83.9736 23.2259 79.2769L3.0005 46.5849C0.0948208 41.8883 1.54672 35.7253 6.24341 32.8196L10.5063 30.1823L17.8017 25.6689L25.0972 21.1555L31.7087 17.0652V17.0652C35.3601 14.8061 40.1514 15.9349 42.4105 19.5863L63.8067 54.1709C66.7124 58.8676 65.2605 65.0305 60.5638 67.9362L36.9912 82.5198Z" fill="#2FDBBC"/>
<path d="M10.5063 30.1823L6.24341 32.8196C1.54672 35.7253 0.0948208 41.8883 3.0005 46.5849L23.2259 79.2769C26.1316 83.9736 32.2945 85.4255 36.9912 82.5198L60.5638 67.9362C65.2605 65.0305 66.7124 58.8676 63.8067 54.1709L42.4105 19.5863C40.1514 15.9349 35.3601 14.8061 31.7087 17.0652V17.0652M10.5063 30.1823C8.14138 25.3406 5.1094 14.7328 11.901 11.0355C18.6925 7.33815 23.5283 16.2416 25.0972 21.1555M10.5063 30.1823L17.8017 25.6689M25.0972 21.1555L17.8017 25.6689M25.0972 21.1555L31.7087 17.0652M17.8017 25.6689C13.7239 19.2045 7.09637 5.47793 13.2095 2.28687C19.3226 -0.904196 28.0894 10.8094 31.7087 17.0652" stroke="#2FDBBC" stroke-width="2" stroke-linecap="round" stroke-linejoin="round"/>
</g>
</svg>
