<svg width="94" height="163" viewBox="0 0 94 163" fill="none" xmlns="http://www.w3.org/2000/svg">
<g opacity="0.7">
<path fill-rule="evenodd" clip-rule="evenodd" d="M12.5125 121.929C6.92127 122.016 2.34554 117.501 2.35755 111.909L2.55149 21.6058C2.56163 16.8841 5.87305 12.8129 10.4937 11.8413L58.9398 1.65432C60.7857 1.26619 62.7036 1.40801 64.4723 2.06342L85.0293 9.68114C88.9891 11.1485 91.6003 14.9451 91.554 19.1677L90.5471 110.983C90.4877 116.403 86.1218 120.788 80.7027 120.872L73.2025 120.989L55.9646 121.256L41.1209 121.486L26.2772 121.716L12.5125 121.929Z" fill="#A64CED"/>
<path d="M55.9646 121.256C56.0986 129.901 53.4936 147.237 42.0016 147.415C30.5097 147.593 26.7304 130.356 26.2772 121.716M55.9646 121.256L41.1209 121.486M55.9646 121.256L73.2025 120.989M26.2772 121.716L12.5125 121.929C6.92127 122.016 2.34554 117.501 2.35755 111.909L2.55149 21.6058C2.56163 16.8841 5.87305 12.8129 10.4937 11.8413L58.9398 1.65432C60.7857 1.26619 62.7036 1.40801 64.4723 2.06342L85.0293 9.68114C88.9891 11.1485 91.6003 14.9451 91.554 19.1677L90.5471 110.983C90.4877 116.403 86.1218 120.788 80.7027 120.872L73.2025 120.989M26.2772 121.716L41.1209 121.486M41.1209 121.486C41.9866 135.027 46.9352 162.086 59.8034 161.995C72.6717 161.903 74.0979 134.619 73.2025 120.989" stroke="#A64CED" stroke-width="2" stroke-linecap="round" stroke-linejoin="round"/>
<path d="M60.7094 12.6606L61.5033 33.3343M63.885 95.3555L62.2972 54.008" stroke="white" stroke-width="2" stroke-linecap="round" stroke-linejoin="round"/>
</g>
</svg>
