<svg width="170" height="340" viewBox="0 0 170 340" fill="none" xmlns="http://www.w3.org/2000/svg">
<rect opacity="0.7" x="0.386719" y="0.420898" width="169.189" height="339.449" rx="32.1245" fill="black"/>
<g clip-path="url(#clip0_39_85)">
<rect x="5.74023" y="5.77539" width="158.481" height="328.741" rx="26.7704" fill="white"/>
<g clip-path="url(#clip1_39_85)">
<rect x="16.4482" y="78.5908" width="137.065" height="113.507" rx="21.4163" fill="#F9F9F9"/>
<path opacity="0.7" d="M20.7314 167.469H42.1478" stroke="#2FDBBC" stroke-width="128.498" stroke-linecap="round"/>
<circle cx="27.4909" cy="144.245" r="2.67704" transform="rotate(24.5319 27.4909 144.245)" fill="black"/>
<circle cx="49.7262" cy="149.685" r="2.67704" transform="rotate(24.5319 49.7262 149.685)" fill="black"/>
<path d="M33.2957 170.781C35.6276 172.733 41.6126 172.823 39.4709 166.398C48.5729 166.398 42.148 157.296 36.0542 159.365" stroke="black" stroke-width="2.14163" stroke-linecap="round" stroke-linejoin="round"/>
<path d="M95.4703 183.173C99.0886 183.722 101.841 183.219 103.536 182.214M96.5238 174.051C105.784 175.083 107.375 179.936 103.536 182.214M67.592 195.076C76.139 214.07 86.7169 180.773 88.7479 173.366C90.7789 165.959 93.798 152.308 99.6734 154.643C104.374 156.511 100.645 163.597 98.0009 168.664C100.645 163.597 105.652 155.54 108.915 157.901C113.748 161.398 107.716 168.436 104.426 171.636M100.629 172.28C104.039 171.285 111.739 170.838 112.564 176.277C113.018 179.266 111.191 180.831 108.934 181.597M103.536 182.214C104.945 182.315 107.084 182.224 108.934 181.597M108.934 181.597C107.614 194.333 101.248 212.268 91.7452 220.522C82.2424 228.775 69.7712 228.493 66.6905 227.407" stroke="black" stroke-width="2.14163" stroke-linecap="round" stroke-linejoin="round"/>
<circle cx="112.822" cy="131.061" r="5.35409" stroke="black" stroke-width="2.14163"/>
<circle cx="150.3" cy="122.494" r="5.35409" stroke="black" stroke-width="2.14163"/>
<path d="M118.712 129.454L144.411 123.565M112.822 125.171L116.035 96.2588" stroke="black" stroke-width="2.14163" stroke-linecap="round" stroke-linejoin="round"/>
<path d="M108.538 92.5117L124.6 98.4012" stroke="black" stroke-width="2.14163" stroke-linecap="round" stroke-linejoin="round"/>
</g>
<g clip-path="url(#clip2_39_85)">
<rect x="16.4482" y="47.5371" width="25.6996" height="25.6996" rx="12.8498" fill="#DAFAF4"/>
<rect opacity="0.7" x="16.4482" y="60.3867" width="25.6996" height="19.2747" rx="9.63735" fill="#2FDBBC"/>
<circle cx="26.6213" cy="67.3469" r="0.535409" fill="black"/>
<circle cx="31.9758" cy="67.3469" r="0.535409" fill="black"/>
</g>
<g clip-path="url(#clip3_39_85)">
<rect x="16.4482" y="250.992" width="25.6996" height="25.6996" rx="12.8498" fill="#FFF5EB"/>
<rect opacity="0.7" x="16.4482" y="263.842" width="25.6996" height="19.2747" rx="9.63735" fill="#FDC280"/>
<circle cx="26.6213" cy="270.802" r="0.535409" fill="black"/>
<circle cx="31.9758" cy="270.802" r="0.535409" fill="black"/>
<circle cx="26.6209" cy="270.803" r="1.39206" stroke="black" stroke-width="0.428327"/>
<circle cx="31.9754" cy="270.803" r="1.39206" stroke="black" stroke-width="0.428327"/>
<path d="M28.2275 270.803H30.3692" stroke="black" stroke-width="0.428327" stroke-linecap="round" stroke-linejoin="round"/>
</g>
<path d="M49.3652 64.4668V63.4131H52.0636C52.5776 63.4131 52.9803 63.2632 53.2715 62.9634C53.5628 62.655 53.7084 62.2866 53.7084 61.8583C53.7084 61.567 53.6442 61.3057 53.5157 61.0744C53.3872 60.8346 53.1987 60.6461 52.9503 60.5091C52.7104 60.372 52.4277 60.3035 52.1022 60.3035H49.3652V59.2498H51.9223C52.3506 59.2498 52.689 59.1384 52.9374 58.9157C53.1944 58.6844 53.3229 58.3546 53.3229 57.9262C53.3229 57.4979 53.1901 57.1724 52.9246 56.9497C52.659 56.7184 52.3078 56.6027 51.8709 56.6027H49.3652V55.549H51.8966C52.4791 55.549 52.9631 55.6561 53.3486 55.8703C53.7427 56.0759 54.0382 56.35 54.2353 56.6927C54.4408 57.0353 54.5436 57.4123 54.5436 57.8234C54.5436 58.3032 54.4109 58.7229 54.1453 59.0827C53.8883 59.4425 53.5071 59.7252 53.0017 59.9308L53.1045 59.5453C53.6784 59.7509 54.1239 60.0636 54.4408 60.4834C54.7664 60.8946 54.9291 61.3828 54.9291 61.9482C54.9291 62.4194 54.8135 62.8434 54.5822 63.2204C54.3509 63.5973 54.0168 63.9014 53.5799 64.1327C53.1516 64.3554 52.6247 64.4668 51.9994 64.4668H49.3652ZM48.5556 64.4668V55.549H49.7635V64.4668H48.5556ZM58.8104 64.5953C58.3135 64.5953 57.8638 64.4839 57.4612 64.2612C57.0671 64.0299 56.7587 63.7129 56.536 63.3103C56.3132 62.9077 56.2019 62.4408 56.2019 61.9097V58.3631H57.3584V61.8583C57.3584 62.1924 57.414 62.4836 57.5254 62.7321C57.6453 62.9719 57.8167 63.1561 58.0394 63.2846C58.2621 63.4131 58.5234 63.4774 58.8232 63.4774C59.2773 63.4774 59.6328 63.336 59.8898 63.0533C60.1468 62.7621 60.2753 62.3637 60.2753 61.8583V58.3631H61.4317V61.9097C61.4317 62.4408 61.3204 62.9077 61.0977 63.3103C60.8749 63.7129 60.5665 64.0299 60.1725 64.2612C59.787 64.4839 59.3329 64.5953 58.8104 64.5953ZM66.1942 64.5953C65.7316 64.5953 65.3119 64.5011 64.9349 64.3126C64.5666 64.1156 64.271 63.8457 64.0483 63.5031C63.8256 63.1604 63.7013 62.7706 63.6756 62.3337V60.4962C63.7013 60.0507 63.8256 59.661 64.0483 59.3269C64.2796 58.9842 64.5794 58.7186 64.9478 58.5302C65.3247 58.3332 65.7402 58.2346 66.1942 58.2346C66.751 58.2346 67.2522 58.376 67.6976 58.6587C68.1517 58.9414 68.5072 59.3226 68.7642 59.8023C69.0212 60.282 69.1497 60.8217 69.1497 61.4214C69.1497 62.0211 69.0212 62.5607 68.7642 63.0405C68.5072 63.5202 68.1517 63.9014 67.6976 64.1841C67.2522 64.4582 66.751 64.5953 66.1942 64.5953ZM66.0015 63.5031C66.387 63.5031 66.7253 63.4131 67.0166 63.2332C67.3079 63.0533 67.5392 62.8092 67.7105 62.5008C67.8818 62.1838 67.9675 61.8197 67.9675 61.4085C67.9675 61.0059 67.8818 60.6461 67.7105 60.3292C67.5392 60.0122 67.3079 59.7681 67.0166 59.5967C66.7253 59.4168 66.3912 59.3269 66.0143 59.3269C65.6288 59.3269 65.2904 59.4168 64.9992 59.5967C64.7079 59.7681 64.4809 60.0122 64.3181 60.3292C64.1554 60.6461 64.074 61.0102 64.074 61.4214C64.074 61.824 64.1511 62.1838 64.3053 62.5008C64.468 62.8092 64.6951 63.0533 64.9863 63.2332C65.2862 63.4131 65.6245 63.5031 66.0015 63.5031ZM62.9818 64.4668V55.292H64.1382V59.8537L63.9198 61.3314L64.1382 62.822V64.4668H62.9818ZM70.4736 64.4668V58.3631H71.6301V64.4668H70.4736ZM71.0518 57.1424C70.8377 57.1424 70.6621 57.0739 70.525 56.9368C70.3879 56.7912 70.3194 56.6113 70.3194 56.3971C70.3194 56.1915 70.3879 56.0202 70.525 55.8831C70.6621 55.7375 70.8377 55.6647 71.0518 55.6647C71.266 55.6647 71.4416 55.7375 71.5787 55.8831C71.7157 56.0202 71.7843 56.1915 71.7843 56.3971C71.7843 56.6113 71.7157 56.7912 71.5787 56.9368C71.4416 57.0739 71.266 57.1424 71.0518 57.1424Z" fill="#B9B9B9"/>
<path d="M19.5664 29.1299V20.135H21.0442V29.1299H19.5664ZM20.5816 25.2749V23.9257H25.1561V25.2749H20.5816ZM20.5816 21.4842V20.135H25.3745V21.4842H20.5816ZM29.279 29.2584C28.6622 29.2584 28.1054 29.1213 27.6085 28.8472C27.1202 28.5645 26.7304 28.179 26.4392 27.6907C26.1565 27.2024 26.0151 26.6542 26.0151 26.0459C26.0151 25.4377 26.1565 24.8937 26.4392 24.414C26.7219 23.9257 27.1031 23.5402 27.5828 23.2575C28.0711 22.9748 28.6108 22.8335 29.2019 22.8335C29.7758 22.8335 30.2813 22.9663 30.7182 23.2318C31.1636 23.4974 31.5106 23.8615 31.759 24.3241C32.016 24.7866 32.1445 25.3135 32.1445 25.9046C32.1445 26.0074 32.1359 26.1145 32.1188 26.2258C32.1102 26.3286 32.0931 26.4443 32.0674 26.5728H27.0046V25.4163H31.3349L30.8081 25.8789C30.791 25.502 30.7182 25.185 30.5897 24.928C30.4612 24.671 30.277 24.474 30.0371 24.3369C29.8058 24.1998 29.5188 24.1313 29.1762 24.1313C28.8164 24.1313 28.5037 24.2084 28.2381 24.3626C27.9726 24.5168 27.767 24.7352 27.6214 25.0179C27.4757 25.2921 27.4029 25.6219 27.4029 26.0074C27.4029 26.3929 27.48 26.7313 27.6342 27.0225C27.7884 27.3138 28.0068 27.5408 28.2895 27.7036C28.5722 27.8578 28.8978 27.9349 29.2661 27.9349C29.5831 27.9349 29.8744 27.8792 30.1399 27.7678C30.414 27.6564 30.6453 27.4937 30.8338 27.2795L31.7333 28.1918C31.4335 28.5431 31.0694 28.8086 30.6411 28.9885C30.2127 29.1684 29.7587 29.2584 29.279 29.2584ZM36.1431 29.2584C35.5263 29.2584 34.9695 29.1213 34.4726 28.8472C33.9843 28.5645 33.5945 28.179 33.3033 27.6907C33.0206 27.2024 32.8792 26.6542 32.8792 26.0459C32.8792 25.4377 33.0206 24.8937 33.3033 24.414C33.586 23.9257 33.9672 23.5402 34.4469 23.2575C34.9352 22.9748 35.4749 22.8335 36.066 22.8335C36.6399 22.8335 37.1454 22.9663 37.5823 23.2318C38.0277 23.4974 38.3747 23.8615 38.6231 24.3241C38.8801 24.7866 39.0086 25.3135 39.0086 25.9046C39.0086 26.0074 39 26.1145 38.9829 26.2258C38.9743 26.3286 38.9572 26.4443 38.9315 26.5728H33.8687V25.4163H38.1991L37.6722 25.8789C37.6551 25.502 37.5823 25.185 37.4538 24.928C37.3253 24.671 37.1411 24.474 36.9012 24.3369C36.6699 24.1998 36.3829 24.1313 36.0403 24.1313C35.6805 24.1313 35.3678 24.2084 35.1022 24.3626C34.8367 24.5168 34.6311 24.7352 34.4855 25.0179C34.3398 25.2921 34.267 25.6219 34.267 26.0074C34.267 26.3929 34.3441 26.7313 34.4983 27.0225C34.6525 27.3138 34.871 27.5408 35.1536 27.7036C35.4363 27.8578 35.7619 27.9349 36.1302 27.9349C36.4472 27.9349 36.7385 27.8792 37.004 27.7678C37.2781 27.6564 37.5094 27.4937 37.6979 27.2795L38.5974 28.1918C38.2976 28.5431 37.9335 28.8086 37.5052 28.9885C37.0768 29.1684 36.6228 29.2584 36.1431 29.2584ZM42.7245 29.2584C42.1677 29.2584 41.6622 29.117 41.2082 28.8343C40.7628 28.5516 40.4072 28.1704 40.1417 27.6907C39.8847 27.2024 39.7562 26.6584 39.7562 26.0588C39.7562 25.4506 39.8847 24.9066 40.1417 24.4269C40.4072 23.9386 40.7628 23.5531 41.2082 23.2704C41.6622 22.9791 42.1677 22.8335 42.7245 22.8335C43.1957 22.8335 43.6111 22.9363 43.9709 23.1419C44.3393 23.3389 44.6305 23.613 44.8447 23.9643C45.0589 24.3155 45.166 24.7138 45.166 25.1593V26.9326C45.166 27.378 45.0589 27.7764 44.8447 28.1276C44.6391 28.4788 44.3521 28.7572 43.9838 28.9628C43.6154 29.1599 43.1957 29.2584 42.7245 29.2584ZM42.9558 27.922C43.307 27.922 43.6111 27.8449 43.8681 27.6907C44.1337 27.5279 44.3393 27.3052 44.4849 27.0225C44.6305 26.7398 44.7034 26.4143 44.7034 26.0459C44.7034 25.6776 44.6305 25.352 44.4849 25.0693C44.3393 24.7866 44.1337 24.5682 43.8681 24.414C43.6111 24.2512 43.307 24.1699 42.9558 24.1699C42.6131 24.1699 42.309 24.2512 42.0435 24.414C41.7865 24.5682 41.5809 24.7866 41.4267 25.0693C41.281 25.352 41.2082 25.6776 41.2082 26.0459C41.2082 26.4143 41.281 26.7398 41.4267 27.0225C41.5809 27.3052 41.7865 27.5279 42.0435 27.6907C42.309 27.8449 42.6131 27.922 42.9558 27.922ZM46.0269 29.1299H44.6134V27.4723L44.8576 25.9688L44.6134 24.4783V19.878H46.0269V29.1299Z" fill="#E4E4E4"/>
<g clip-path="url(#clip4_39_85)">
<rect x="16.4482" y="282.046" width="137.065" height="113.507" rx="21.4163" fill="#F9F9F9"/>
<path opacity="0.7" d="M182.425 332.374L113.892 332.374" stroke="#FFAA4C" stroke-width="103.147" stroke-linecap="round"/>
<path d="M116.855 318.577C114.522 320.556 108.341 320.688 105.326 318.526" stroke="black" stroke-width="2.14163" stroke-linecap="round" stroke-linejoin="round"/>
<circle cx="93.012" cy="307.21" r="2.67704" fill="black"/>
<circle cx="116.57" cy="307.21" r="2.67704" fill="black"/>
<circle cx="95.6886" cy="306.675" r="7.49572" stroke="black" stroke-width="2.14163"/>
<circle cx="119.246" cy="306.675" r="7.49572" stroke="black" stroke-width="2.14163"/>
<path d="M103.185 307.21H111.751" stroke="black" stroke-width="2.14163" stroke-linecap="round" stroke-linejoin="round"/>
<path d="M29.84 311.364L28.6606 310.683C26.612 309.5 23.9924 310.202 22.8096 312.25L10.0232 334.397C8.84036 336.446 9.54228 339.065 11.5909 340.248L33.5049 352.9C35.5535 354.083 38.1731 353.381 39.3559 351.332L52.1424 329.186C53.3252 327.137 52.6232 324.517 50.5746 323.335L44.972 320.1M29.84 311.364C31.6593 307.137 36.3689 299.303 40.6524 301.776C44.9359 304.249 41.4369 312.782 39.152 316.74M29.84 311.364L34.496 314.052M39.152 316.74L34.496 314.052M39.152 316.74L44.972 320.1M34.496 314.052C36.4049 309.67 41.5533 301.613 46.8756 304.437C52.1978 307.262 47.8241 316.056 44.972 320.1" stroke="black" stroke-width="2.14163" stroke-linecap="round" stroke-linejoin="round"/>
</g>
<path d="M49.3652 267.922V266.868H52.0636C52.5776 266.868 52.9803 266.718 53.2715 266.418C53.5628 266.11 53.7084 265.742 53.7084 265.313C53.7084 265.022 53.6442 264.761 53.5157 264.53C53.3872 264.29 53.1987 264.101 52.9503 263.964C52.7104 263.827 52.4277 263.759 52.1022 263.759H49.3652V262.705H51.9223C52.3506 262.705 52.689 262.593 52.9374 262.371C53.1944 262.139 53.3229 261.81 53.3229 261.381C53.3229 260.953 53.1901 260.627 52.9246 260.405C52.659 260.173 52.3078 260.058 51.8709 260.058H49.3652V259.004H51.8966C52.4791 259.004 52.9631 259.111 53.3486 259.325C53.7427 259.531 54.0382 259.805 54.2353 260.148C54.4408 260.49 54.5436 260.867 54.5436 261.279C54.5436 261.758 54.4109 262.178 54.1453 262.538C53.8883 262.898 53.5071 263.18 53.0017 263.386L53.1045 263C53.6784 263.206 54.1239 263.519 54.4408 263.938C54.7664 264.35 54.9291 264.838 54.9291 265.403C54.9291 265.874 54.8135 266.299 54.5822 266.675C54.3509 267.052 54.0168 267.356 53.5799 267.588C53.1516 267.811 52.6247 267.922 51.9994 267.922H49.3652ZM48.5556 267.922V259.004H49.7635V267.922H48.5556ZM58.8104 268.05C58.3135 268.05 57.8638 267.939 57.4612 267.716C57.0671 267.485 56.7587 267.168 56.536 266.765C56.3132 266.363 56.2019 265.896 56.2019 265.365V261.818H57.3584V265.313C57.3584 265.647 57.414 265.939 57.5254 266.187C57.6453 266.427 57.8167 266.611 58.0394 266.74C58.2621 266.868 58.5234 266.932 58.8232 266.932C59.2773 266.932 59.6328 266.791 59.8898 266.508C60.1468 266.217 60.2753 265.819 60.2753 265.313V261.818H61.4317V265.365C61.4317 265.896 61.3204 266.363 61.0977 266.765C60.8749 267.168 60.5665 267.485 60.1725 267.716C59.787 267.939 59.3329 268.05 58.8104 268.05ZM66.1942 268.05C65.7316 268.05 65.3119 267.956 64.9349 267.768C64.5666 267.571 64.271 267.301 64.0483 266.958C63.8256 266.615 63.7013 266.226 63.6756 265.789V263.951C63.7013 263.506 63.8256 263.116 64.0483 262.782C64.2796 262.439 64.5794 262.174 64.9478 261.985C65.3247 261.788 65.7402 261.69 66.1942 261.69C66.751 261.69 67.2522 261.831 67.6976 262.114C68.1517 262.396 68.5072 262.778 68.7642 263.257C69.0212 263.737 69.1497 264.277 69.1497 264.876C69.1497 265.476 69.0212 266.016 68.7642 266.496C68.5072 266.975 68.1517 267.356 67.6976 267.639C67.2522 267.913 66.751 268.05 66.1942 268.05ZM66.0015 266.958C66.387 266.958 66.7253 266.868 67.0166 266.688C67.3079 266.508 67.5392 266.264 67.7105 265.956C67.8818 265.639 67.9675 265.275 67.9675 264.864C67.9675 264.461 67.8818 264.101 67.7105 263.784C67.5392 263.467 67.3079 263.223 67.0166 263.052C66.7253 262.872 66.3912 262.782 66.0143 262.782C65.6288 262.782 65.2904 262.872 64.9992 263.052C64.7079 263.223 64.4809 263.467 64.3181 263.784C64.1554 264.101 64.074 264.465 64.074 264.876C64.074 265.279 64.1511 265.639 64.3053 265.956C64.468 266.264 64.6951 266.508 64.9863 266.688C65.2862 266.868 65.6245 266.958 66.0015 266.958ZM62.9818 267.922V258.747H64.1382V263.309L63.9198 264.787L64.1382 266.277V267.922H62.9818ZM72.9151 268.05C72.4182 268.05 71.9685 267.939 71.5658 267.716C71.1718 267.485 70.8634 267.168 70.6406 266.765C70.4179 266.363 70.3065 265.896 70.3065 265.365V261.818H71.463V265.313C71.463 265.647 71.5187 265.939 71.6301 266.187C71.75 266.427 71.9213 266.611 72.1441 266.74C72.3668 266.868 72.6281 266.932 72.9279 266.932C73.3819 266.932 73.7374 266.791 73.9944 266.508C74.2514 266.217 74.3799 265.819 74.3799 265.313V261.818H75.5364V265.365C75.5364 265.896 75.4251 266.363 75.2023 266.765C74.9796 267.168 74.6712 267.485 74.2771 267.716C73.8916 267.939 73.4376 268.05 72.9151 268.05Z" fill="#B9B9B9"/>
<rect opacity="0.7" x="63.5645" y="19.6963" width="42.8327" height="10.7082" rx="5.35409" fill="black"/>
<path d="M17.5019 210.452V201.534H18.7098V210.452H17.5019ZM26.4945 210.581C26.0319 210.581 25.6121 210.486 25.2352 210.298C24.8668 210.101 24.5713 209.831 24.3486 209.488C24.1258 209.146 24.0016 208.756 23.9759 208.319V206.482C24.0016 206.036 24.1258 205.646 24.3486 205.312C24.5799 204.97 24.8797 204.704 25.2481 204.516C25.625 204.319 26.0405 204.22 26.4945 204.22C27.0513 204.22 27.5524 204.361 27.9979 204.644C28.4519 204.927 28.8074 205.308 29.0644 205.788C29.3214 206.267 29.4499 206.807 29.4499 207.407C29.4499 208.006 29.3214 208.546 29.0644 209.026C28.8074 209.506 28.4519 209.887 27.9979 210.169C27.5524 210.444 27.0513 210.581 26.4945 210.581ZM26.3017 209.488C26.6872 209.488 27.0256 209.398 27.3169 209.219C27.6081 209.039 27.8394 208.795 28.0108 208.486C28.1821 208.169 28.2678 207.805 28.2678 207.394C28.2678 206.991 28.1821 206.631 28.0108 206.315C27.8394 205.998 27.6081 205.753 27.3169 205.582C27.0256 205.402 26.6915 205.312 26.3146 205.312C25.9291 205.312 25.5907 205.402 25.2994 205.582C25.0082 205.753 24.7812 205.998 24.6184 206.315C24.4556 206.631 24.3743 206.996 24.3743 207.407C24.3743 207.809 24.4514 208.169 24.6056 208.486C24.7683 208.795 24.9953 209.039 25.2866 209.219C25.5864 209.398 25.9248 209.488 26.3017 209.488ZM23.282 210.452V201.277H24.4385V205.839L24.2201 207.317L24.4385 208.807V210.452H23.282ZM33.5494 210.581C32.9498 210.581 32.4101 210.439 31.9304 210.157C31.4506 209.874 31.0694 209.493 30.7867 209.013C30.504 208.525 30.3627 207.981 30.3627 207.381C30.3627 206.79 30.504 206.259 30.7867 205.788C31.0694 205.308 31.4506 204.927 31.9304 204.644C32.4101 204.361 32.9498 204.22 33.5494 204.22C34.1405 204.22 34.6759 204.361 35.1557 204.644C35.6439 204.918 36.0294 205.295 36.3121 205.775C36.5948 206.255 36.7362 206.79 36.7362 207.381C36.7362 207.981 36.5948 208.525 36.3121 209.013C36.0294 209.493 35.6439 209.874 35.1557 210.157C34.6759 210.439 34.1405 210.581 33.5494 210.581ZM33.5494 209.463C33.9349 209.463 34.2776 209.373 34.5774 209.193C34.8772 209.013 35.1128 208.769 35.2842 208.46C35.4555 208.143 35.5411 207.784 35.5411 207.381C35.5411 206.987 35.4512 206.636 35.2713 206.327C35.1 206.019 34.8644 205.779 34.5646 205.608C34.2733 205.428 33.9349 205.338 33.5494 205.338C33.1639 205.338 32.8213 205.428 32.5214 205.608C32.2216 205.779 31.986 206.019 31.8147 206.327C31.6434 206.636 31.5577 206.987 31.5577 207.381C31.5577 207.784 31.6434 208.143 31.8147 208.46C31.986 208.769 32.2216 209.013 32.5214 209.193C32.8213 209.373 33.1639 209.463 33.5494 209.463ZM40.4935 210.581C39.9967 210.581 39.5469 210.469 39.1443 210.247C38.7503 210.015 38.4419 209.698 38.2191 209.296C37.9964 208.893 37.885 208.426 37.885 207.895V204.348H39.0415V207.844C39.0415 208.178 39.0972 208.469 39.2086 208.717C39.3285 208.957 39.4998 209.141 39.7226 209.27C39.9453 209.398 40.2066 209.463 40.5064 209.463C40.9604 209.463 41.3159 209.321 41.5729 209.039C41.8299 208.747 41.9584 208.349 41.9584 207.844V204.348H43.1149V207.895C43.1149 208.426 43.0035 208.893 42.7808 209.296C42.5581 209.698 42.2497 210.015 41.8556 210.247C41.4701 210.469 41.0161 210.581 40.4935 210.581ZM47.1963 213.138C46.571 213.138 46.0141 213.022 45.5258 212.791C45.0461 212.56 44.6606 212.234 44.3694 211.814L45.1147 211.056C45.3631 211.373 45.6586 211.613 46.0013 211.776C46.344 211.947 46.7509 212.033 47.222 212.033C47.8474 212.033 48.34 211.866 48.6998 211.532C49.0681 211.206 49.2523 210.765 49.2523 210.208V208.692L49.4579 207.317L49.2523 205.955V204.348H50.4088V210.208C50.4088 210.791 50.2717 211.3 49.9976 211.737C49.732 212.174 49.3551 212.517 48.8668 212.765C48.3871 213.014 47.8302 213.138 47.1963 213.138ZM47.1963 210.349C46.6395 210.349 46.1384 210.217 45.6929 209.951C45.256 209.685 44.9091 209.321 44.6521 208.859C44.3951 208.388 44.2666 207.861 44.2666 207.278C44.2666 206.696 44.3951 206.177 44.6521 205.723C44.9091 205.261 45.256 204.897 45.6929 204.631C46.1384 204.357 46.6395 204.22 47.1963 204.22C47.676 204.22 48.1001 204.314 48.4685 204.503C48.8368 204.691 49.1281 204.957 49.3422 205.299C49.565 205.633 49.6849 206.028 49.702 206.482V208.101C49.6763 208.546 49.5521 208.94 49.3294 209.283C49.1152 209.617 48.824 209.878 48.4556 210.067C48.0872 210.255 47.6675 210.349 47.1963 210.349ZM47.4276 209.257C47.8045 209.257 48.1344 209.176 48.4171 209.013C48.7083 208.85 48.931 208.623 49.0852 208.332C49.2394 208.032 49.3165 207.685 49.3165 207.291C49.3165 206.897 49.2352 206.554 49.0724 206.263C48.9182 205.963 48.6998 205.732 48.4171 205.569C48.1344 205.398 47.8003 205.312 47.4148 205.312C47.0293 205.312 46.6909 205.398 46.3996 205.569C46.1084 205.732 45.8771 205.963 45.7057 206.263C45.543 206.554 45.4616 206.893 45.4616 207.278C45.4616 207.664 45.543 208.006 45.7057 208.306C45.8771 208.606 46.1084 208.842 46.3996 209.013C46.6995 209.176 47.0421 209.257 47.4276 209.257ZM56.4238 210.452V206.893C56.4238 206.43 56.2782 206.049 55.9869 205.749C55.6956 205.449 55.3187 205.299 54.8561 205.299C54.5477 205.299 54.2736 205.368 54.0337 205.505C53.7939 205.642 53.6054 205.831 53.4683 206.07C53.3313 206.31 53.2627 206.584 53.2627 206.893L52.7873 206.623C52.7873 206.16 52.8901 205.749 53.0957 205.389C53.3013 205.03 53.5883 204.747 53.9566 204.541C54.325 204.327 54.7405 204.22 55.2031 204.22C55.6657 204.22 56.0726 204.323 56.4238 204.528C56.7836 204.734 57.0663 205.021 57.2719 205.389C57.4775 205.758 57.5803 206.182 57.5803 206.661V210.452H56.4238ZM52.1063 210.452V201.277H53.2627V210.452H52.1063ZM60.0088 210.452V201.791H61.1653V210.452H60.0088ZM58.5054 205.402V204.348H62.6687V205.402H58.5054ZM66.4744 210.452V204.348H67.6309V210.452H66.4744ZM70.5992 210.452V206.764C70.5992 206.31 70.4579 205.955 70.1752 205.698C69.9011 205.432 69.5541 205.299 69.1344 205.299C68.8517 205.299 68.5989 205.359 68.3762 205.479C68.1535 205.599 67.9736 205.766 67.8365 205.98C67.6995 206.195 67.6309 206.452 67.6309 206.751L67.1555 206.52C67.1555 206.058 67.254 205.655 67.451 205.312C67.6566 204.97 67.935 204.704 68.2863 204.516C68.6375 204.319 69.0316 204.22 69.4685 204.22C69.8968 204.22 70.2823 204.314 70.6249 204.503C70.9762 204.691 71.2503 204.957 71.4473 205.299C71.6529 205.642 71.7557 206.049 71.7557 206.52V210.452H70.5992ZM74.724 210.452V206.764C74.724 206.31 74.5827 205.955 74.3 205.698C74.0258 205.432 73.6832 205.299 73.272 205.299C72.9893 205.299 72.7323 205.359 72.501 205.479C72.2783 205.599 72.0984 205.766 71.9613 205.98C71.8242 206.195 71.7557 206.452 71.7557 206.751L71.1004 206.52C71.1261 206.049 71.2503 205.646 71.473 205.312C71.7043 204.97 71.9999 204.704 72.3597 204.516C72.7195 204.319 73.1135 204.22 73.5418 204.22C73.9873 204.22 74.3856 204.314 74.7369 204.503C75.0881 204.691 75.3665 204.957 75.5721 205.299C75.7863 205.642 75.8934 206.053 75.8934 206.533V210.452H74.724ZM79.4716 210.504L76.8246 204.348H78.1095L80.0756 209.167H79.6644L81.7332 204.348H83.0182L80.1655 210.504H79.4716ZM77.7241 213.009L79.523 209.321L80.1655 210.504L79.009 213.009H77.7241ZM85.7821 210.581C85.4394 210.581 85.1139 210.538 84.8055 210.452C84.5057 210.358 84.2273 210.229 83.9703 210.067C83.7133 209.895 83.4905 209.694 83.3021 209.463L84.0474 208.717C84.2701 208.992 84.5271 209.197 84.8183 209.334C85.1096 209.463 85.4351 209.527 85.7949 209.527C86.1547 209.527 86.4331 209.467 86.6302 209.347C86.8272 209.219 86.9257 209.043 86.9257 208.82C86.9257 208.597 86.8443 208.426 86.6816 208.306C86.5274 208.178 86.3261 208.075 86.0776 207.998C85.8292 207.912 85.5636 207.831 85.2809 207.754C85.0068 207.668 84.7455 207.561 84.4971 207.432C84.2487 207.304 84.0431 207.128 83.8803 206.906C83.7261 206.683 83.649 206.387 83.649 206.019C83.649 205.651 83.739 205.334 83.9189 205.068C84.0988 204.794 84.3472 204.584 84.6642 204.438C84.9897 204.293 85.3795 204.22 85.8335 204.22C86.3132 204.22 86.7373 204.306 87.1056 204.477C87.4825 204.64 87.7909 204.888 88.0308 205.222L87.2855 205.968C87.1142 205.745 86.9 205.574 86.643 205.454C86.3946 205.334 86.1119 205.274 85.7949 205.274C85.4608 205.274 85.2038 205.334 85.0239 205.454C84.8526 205.565 84.7669 205.723 84.7669 205.929C84.7669 206.135 84.844 206.293 84.9982 206.404C85.1524 206.516 85.3538 206.61 85.6022 206.687C85.8592 206.764 86.1247 206.846 86.3989 206.931C86.673 207.008 86.9343 207.115 87.1827 207.253C87.4311 207.39 87.6325 207.574 87.7867 207.805C87.9494 208.036 88.0308 208.34 88.0308 208.717C88.0308 209.291 87.8252 209.745 87.414 210.08C87.0114 210.414 86.4674 210.581 85.7821 210.581ZM92.1525 210.581C91.5443 210.581 90.996 210.444 90.5077 210.169C90.0194 209.887 89.6339 209.506 89.3512 209.026C89.0685 208.546 88.9272 208.002 88.9272 207.394C88.9272 206.794 89.0642 206.255 89.3384 205.775C89.6211 205.295 89.998 204.918 90.4692 204.644C90.9489 204.361 91.4843 204.22 92.0754 204.22C92.6408 204.22 93.1376 204.348 93.566 204.605C94.0028 204.862 94.3412 205.218 94.5811 205.672C94.8295 206.126 94.9537 206.64 94.9537 207.214C94.9537 207.3 94.9495 207.394 94.9409 207.497C94.9323 207.591 94.9152 207.702 94.8895 207.831H89.7367V206.867H94.2727L93.8487 207.24C93.8487 206.829 93.7758 206.482 93.6302 206.199C93.4846 205.908 93.279 205.685 93.0134 205.531C92.7479 205.368 92.4266 205.287 92.0497 205.287C91.6556 205.287 91.3087 205.372 91.0088 205.544C90.709 205.715 90.4777 205.955 90.315 206.263C90.1522 206.572 90.0708 206.936 90.0708 207.355C90.0708 207.784 90.1565 208.161 90.3278 208.486C90.4991 208.803 90.7433 209.052 91.0602 209.231C91.3772 209.403 91.7413 209.488 92.1525 209.488C92.4951 209.488 92.8078 209.428 93.0905 209.309C93.3818 209.189 93.6302 209.009 93.8358 208.769L94.5811 209.527C94.2898 209.87 93.93 210.131 93.5017 210.311C93.0819 210.491 92.6322 210.581 92.1525 210.581ZM96.2147 210.452V201.277H97.3712V210.452H96.2147ZM99.9371 210.452V203.436C99.9371 202.982 100.036 202.588 100.233 202.254C100.43 201.911 100.699 201.641 101.042 201.444C101.393 201.247 101.8 201.149 102.263 201.149C102.614 201.149 102.918 201.209 103.175 201.329C103.432 201.449 103.668 201.624 103.882 201.856L103.124 202.601C103.012 202.481 102.888 202.391 102.751 202.331C102.614 202.263 102.447 202.228 102.25 202.228C101.882 202.228 101.595 202.335 101.389 202.55C101.192 202.764 101.094 203.059 101.094 203.436V210.452H99.9371ZM98.4336 205.402V204.348H103.034V205.402H98.4336ZM19.892 226.581C19.3352 226.581 18.8297 226.444 18.3757 226.169C17.9217 225.887 17.5619 225.506 17.2963 225.026C17.0393 224.546 16.9108 224.006 16.9108 223.407C16.9108 222.807 17.0393 222.267 17.2963 221.788C17.5619 221.308 17.9174 220.927 18.3629 220.644C18.8169 220.361 19.3266 220.22 19.892 220.22C20.3546 220.22 20.7658 220.319 21.1256 220.516C21.4939 220.704 21.7895 220.97 22.0122 221.312C22.2349 221.646 22.3592 222.036 22.3849 222.482V224.319C22.3592 224.756 22.2349 225.146 22.0122 225.488C21.798 225.831 21.5068 226.101 21.1384 226.298C20.7786 226.486 20.3632 226.581 19.892 226.581ZM20.0847 225.488C20.6587 225.488 21.1213 225.296 21.4725 224.91C21.8237 224.516 21.9994 224.015 21.9994 223.407C21.9994 222.987 21.918 222.623 21.7552 222.315C21.601 221.998 21.3783 221.753 21.087 221.582C20.7958 221.402 20.4574 221.312 20.0719 221.312C19.6864 221.312 19.3437 221.402 19.0439 221.582C18.7526 221.762 18.5213 222.01 18.35 222.327C18.1872 222.636 18.1059 222.991 18.1059 223.394C18.1059 223.805 18.1872 224.169 18.35 224.486C18.5213 224.795 18.7569 225.039 19.0568 225.219C19.3566 225.398 19.6992 225.488 20.0847 225.488ZM21.9223 226.452V224.807L22.1407 223.317L21.9223 221.839V220.348H23.0916V226.452H21.9223ZM29.0929 226.452V222.893C29.0929 222.43 28.9472 222.049 28.656 221.749C28.3647 221.449 27.9878 221.299 27.5252 221.299C27.2168 221.299 26.9427 221.368 26.7028 221.505C26.4629 221.642 26.2745 221.831 26.1374 222.07C26.0003 222.31 25.9318 222.584 25.9318 222.893L25.4564 222.623C25.4564 222.16 25.5592 221.749 25.7648 221.389C25.9704 221.03 26.2573 220.747 26.6257 220.541C26.9941 220.327 27.4095 220.22 27.8721 220.22C28.3347 220.22 28.7416 220.336 29.0929 220.567C29.4526 220.798 29.7353 221.102 29.9409 221.479C30.1465 221.848 30.2493 222.242 30.2493 222.661V226.452H29.0929ZM24.7753 226.452V220.348H25.9318V226.452H24.7753ZM37.3149 226.581C36.7067 226.581 36.1584 226.444 35.6701 226.169C35.1819 225.887 34.7964 225.506 34.5137 225.026C34.231 224.546 34.0896 224.002 34.0896 223.394C34.0896 222.794 34.2267 222.255 34.5008 221.775C34.7835 221.295 35.1604 220.918 35.6316 220.644C36.1113 220.361 36.6467 220.22 37.2378 220.22C37.8032 220.22 38.3001 220.348 38.7284 220.605C39.1653 220.862 39.5037 221.218 39.7435 221.672C39.992 222.126 40.1162 222.64 40.1162 223.214C40.1162 223.3 40.1119 223.394 40.1033 223.497C40.0948 223.591 40.0776 223.702 40.0519 223.831H34.8992V222.867H39.4351L39.0111 223.24C39.0111 222.829 38.9383 222.482 38.7927 222.199C38.647 221.908 38.4414 221.685 38.1759 221.531C37.9103 221.368 37.5891 221.287 37.2121 221.287C36.8181 221.287 36.4711 221.372 36.1713 221.544C35.8715 221.715 35.6402 221.955 35.4774 222.263C35.3146 222.572 35.2333 222.936 35.2333 223.355C35.2333 223.784 35.3189 224.161 35.4902 224.486C35.6616 224.803 35.9057 225.052 36.2227 225.231C36.5397 225.403 36.9037 225.488 37.3149 225.488C37.6576 225.488 37.9703 225.428 38.253 225.309C38.5442 225.189 38.7927 225.009 38.9982 224.769L39.7435 225.527C39.4523 225.87 39.0925 226.131 38.6642 226.311C38.2444 226.491 37.7946 226.581 37.3149 226.581ZM41.3772 226.452V217.277H42.5337V226.452H41.3772ZM47.0527 226.581C46.4444 226.581 45.8962 226.444 45.4079 226.169C44.9196 225.887 44.5341 225.506 44.2514 225.026C43.9687 224.546 43.8274 224.002 43.8274 223.394C43.8274 222.794 43.9644 222.255 44.2386 221.775C44.5213 221.295 44.8982 220.918 45.3693 220.644C45.8491 220.361 46.3845 220.22 46.9756 220.22C47.541 220.22 48.0378 220.348 48.4661 220.605C48.903 220.862 49.2414 221.218 49.4813 221.672C49.7297 222.126 49.8539 222.64 49.8539 223.214C49.8539 223.3 49.8496 223.394 49.8411 223.497C49.8325 223.591 49.8154 223.702 49.7897 223.831H44.6369V222.867H49.1729L48.7488 223.24C48.7488 222.829 48.676 222.482 48.5304 222.199C48.3848 221.908 48.1792 221.685 47.9136 221.531C47.648 221.368 47.3268 221.287 46.9499 221.287C46.5558 221.287 46.2089 221.372 45.909 221.544C45.6092 221.715 45.3779 221.955 45.2151 222.263C45.0524 222.572 44.971 222.936 44.971 223.355C44.971 223.784 45.0567 224.161 45.228 224.486C45.3993 224.803 45.6435 225.052 45.9604 225.231C46.2774 225.403 46.6415 225.488 47.0527 225.488C47.3953 225.488 47.708 225.428 47.9907 225.309C48.282 225.189 48.5304 225.009 48.736 224.769L49.4813 225.527C49.19 225.87 48.8302 226.131 48.4019 226.311C47.9821 226.491 47.5324 226.581 47.0527 226.581ZM53.9033 226.581C53.3037 226.581 52.7597 226.439 52.2714 226.157C51.7917 225.874 51.4105 225.493 51.1278 225.013C50.8536 224.525 50.7166 223.985 50.7166 223.394C50.7166 222.794 50.8536 222.255 51.1278 221.775C51.4105 221.295 51.7917 220.918 52.2714 220.644C52.7597 220.361 53.3037 220.22 53.9033 220.22C54.3745 220.22 54.8114 220.31 55.214 220.49C55.6166 220.661 55.9636 220.914 56.2548 221.248L55.4838 222.019C55.2954 221.796 55.0641 221.629 54.79 221.518C54.5244 221.398 54.2289 221.338 53.9033 221.338C53.5178 221.338 53.1752 221.428 52.8753 221.608C52.5755 221.779 52.3399 222.019 52.1686 222.327C51.9973 222.636 51.9116 222.991 51.9116 223.394C51.9116 223.797 51.9973 224.152 52.1686 224.46C52.3399 224.769 52.5755 225.013 52.8753 225.193C53.1752 225.373 53.5178 225.463 53.9033 225.463C54.2289 225.463 54.5244 225.407 54.79 225.296C55.0641 225.176 55.2997 225.004 55.4967 224.782L56.2548 225.553C55.9721 225.878 55.6252 226.131 55.214 226.311C54.8114 226.491 54.3745 226.581 53.9033 226.581ZM58.2645 226.452V217.791H59.421V226.452H58.2645ZM56.7611 221.402V220.348H60.9244V221.402H56.7611ZM62.0573 226.452V220.348H63.2138V226.452H62.0573ZM63.2138 222.97L62.7769 222.777C62.7769 221.998 62.9568 221.376 63.3166 220.914C63.6764 220.451 64.1947 220.22 64.8714 220.22C65.1798 220.22 65.4582 220.276 65.7067 220.387C65.9551 220.49 66.1864 220.665 66.4006 220.914L65.6424 221.698C65.5139 221.561 65.3726 221.462 65.2184 221.402C65.0642 221.342 64.8843 221.312 64.6787 221.312C64.2504 221.312 63.8991 221.449 63.625 221.723C63.3509 221.998 63.2138 222.413 63.2138 222.97ZM67.2277 226.452V220.348H68.3841V226.452H67.2277ZM67.8059 219.128C67.5917 219.128 67.4161 219.059 67.2791 218.922C67.142 218.777 67.0735 218.597 67.0735 218.382C67.0735 218.177 67.142 218.006 67.2791 217.868C67.4161 217.723 67.5917 217.65 67.8059 217.65C68.0201 217.65 68.1957 217.723 68.3328 217.868C68.4698 218.006 68.5383 218.177 68.5383 218.382C68.5383 218.597 68.4698 218.777 68.3328 218.922C68.1957 219.059 68.0201 219.128 67.8059 219.128ZM72.8769 226.581C72.2772 226.581 71.7332 226.439 71.2449 226.157C70.7652 225.874 70.384 225.493 70.1013 225.013C69.8272 224.525 69.6901 223.985 69.6901 223.394C69.6901 222.794 69.8272 222.255 70.1013 221.775C70.384 221.295 70.7652 220.918 71.2449 220.644C71.7332 220.361 72.2772 220.22 72.8769 220.22C73.348 220.22 73.7849 220.31 74.1875 220.49C74.5902 220.661 74.9371 220.914 75.2284 221.248L74.4574 222.019C74.2689 221.796 74.0376 221.629 73.7635 221.518C73.4979 221.398 73.2024 221.338 72.8769 221.338C72.4914 221.338 72.1487 221.428 71.8489 221.608C71.549 221.779 71.3135 222.019 71.1421 222.327C70.9708 222.636 70.8851 222.991 70.8851 223.394C70.8851 223.797 70.9708 224.152 71.1421 224.46C71.3135 224.769 71.549 225.013 71.8489 225.193C72.1487 225.373 72.4914 225.463 72.8769 225.463C73.2024 225.463 73.4979 225.407 73.7635 225.296C74.0376 225.176 74.2732 225.004 74.4702 224.782L75.2284 225.553C74.9457 225.878 74.5987 226.131 74.1875 226.311C73.7849 226.491 73.348 226.581 72.8769 226.581ZM80.9885 226.581C80.6458 226.581 80.3203 226.538 80.0119 226.452C79.7121 226.358 79.4337 226.229 79.1767 226.067C78.9197 225.895 78.697 225.694 78.5085 225.463L79.2538 224.717C79.4765 224.992 79.7335 225.197 80.0248 225.334C80.316 225.463 80.6416 225.527 81.0014 225.527C81.3611 225.527 81.6396 225.467 81.8366 225.347C82.0336 225.219 82.1321 225.043 82.1321 224.82C82.1321 224.597 82.0508 224.426 81.888 224.306C81.7338 224.178 81.5325 224.075 81.284 223.998C81.0356 223.912 80.7701 223.831 80.4874 223.754C80.2132 223.668 79.952 223.561 79.7035 223.432C79.4551 223.304 79.2495 223.128 79.0867 222.906C78.9325 222.683 78.8554 222.387 78.8554 222.019C78.8554 221.651 78.9454 221.334 79.1253 221.068C79.3052 220.794 79.5536 220.584 79.8706 220.438C80.1961 220.293 80.5859 220.22 81.0399 220.22C81.5196 220.22 81.9437 220.306 82.312 220.477C82.689 220.64 82.9974 220.888 83.2372 221.222L82.4919 221.968C82.3206 221.745 82.1064 221.574 81.8494 221.454C81.601 221.334 81.3183 221.274 81.0014 221.274C80.6673 221.274 80.4103 221.334 80.2304 221.454C80.059 221.565 79.9734 221.723 79.9734 221.929C79.9734 222.135 80.0505 222.293 80.2047 222.404C80.3589 222.516 80.5602 222.61 80.8086 222.687C81.0656 222.764 81.3312 222.846 81.6053 222.931C81.8794 223.008 82.1407 223.115 82.3891 223.253C82.6376 223.39 82.8389 223.574 82.9931 223.805C83.1558 224.036 83.2372 224.34 83.2372 224.717C83.2372 225.291 83.0316 225.745 82.6204 226.08C82.2178 226.414 81.6738 226.581 80.9885 226.581ZM87.3203 226.581C86.7207 226.581 86.1767 226.439 85.6884 226.157C85.2087 225.874 84.8275 225.493 84.5448 225.013C84.2707 224.525 84.1336 223.985 84.1336 223.394C84.1336 222.794 84.2707 222.255 84.5448 221.775C84.8275 221.295 85.2087 220.918 85.6884 220.644C86.1767 220.361 86.7207 220.22 87.3203 220.22C87.7915 220.22 88.2284 220.31 88.631 220.49C89.0337 220.661 89.3806 220.914 89.6719 221.248L88.9009 222.019C88.7124 221.796 88.4811 221.629 88.207 221.518C87.9414 221.398 87.6459 221.338 87.3203 221.338C86.9349 221.338 86.5922 221.428 86.2924 221.608C85.9925 221.779 85.757 222.019 85.5856 222.327C85.4143 222.636 85.3286 222.991 85.3286 223.394C85.3286 223.797 85.4143 224.152 85.5856 224.46C85.757 224.769 85.9925 225.013 86.2924 225.193C86.5922 225.373 86.9349 225.463 87.3203 225.463C87.6459 225.463 87.9414 225.407 88.207 225.296C88.4811 225.176 88.7167 225.004 88.9137 224.782L89.6719 225.553C89.3892 225.878 89.0422 226.131 88.631 226.311C88.2284 226.491 87.7915 226.581 87.3203 226.581ZM93.4817 226.581C92.8821 226.581 92.3424 226.439 91.8627 226.157C91.3829 225.874 91.0017 225.493 90.719 225.013C90.4363 224.525 90.295 223.981 90.295 223.381C90.295 222.79 90.4363 222.259 90.719 221.788C91.0017 221.308 91.3829 220.927 91.8627 220.644C92.3424 220.361 92.8821 220.22 93.4817 220.22C94.0728 220.22 94.6082 220.361 95.088 220.644C95.5763 220.918 95.9617 221.295 96.2444 221.775C96.5271 222.255 96.6685 222.79 96.6685 223.381C96.6685 223.981 96.5271 224.525 96.2444 225.013C95.9617 225.493 95.5763 225.874 95.088 226.157C94.6082 226.439 94.0728 226.581 93.4817 226.581ZM93.4817 225.463C93.8672 225.463 94.2099 225.373 94.5097 225.193C94.8095 225.013 95.0451 224.769 95.2165 224.46C95.3878 224.143 95.4735 223.784 95.4735 223.381C95.4735 222.987 95.3835 222.636 95.2036 222.327C95.0323 222.019 94.7967 221.779 94.4969 221.608C94.2056 221.428 93.8672 221.338 93.4817 221.338C93.0962 221.338 92.7536 221.428 92.4537 221.608C92.1539 221.779 91.9183 222.019 91.747 222.327C91.5757 222.636 91.49 222.987 91.49 223.381C91.49 223.784 91.5757 224.143 91.747 224.46C91.9183 224.769 92.1539 225.013 92.4537 225.193C92.7536 225.373 93.0962 225.463 93.4817 225.463ZM100.76 226.581C100.16 226.581 99.6206 226.439 99.1409 226.157C98.6611 225.874 98.2799 225.493 97.9972 225.013C97.7145 224.525 97.5732 223.981 97.5732 223.381C97.5732 222.79 97.7145 222.259 97.9972 221.788C98.2799 221.308 98.6611 220.927 99.1409 220.644C99.6206 220.361 100.16 220.22 100.76 220.22C101.351 220.22 101.886 220.361 102.366 220.644C102.854 220.918 103.24 221.295 103.523 221.775C103.805 222.255 103.947 222.79 103.947 223.381C103.947 223.981 103.805 224.525 103.523 225.013C103.24 225.493 102.854 225.874 102.366 226.157C101.886 226.439 101.351 226.581 100.76 226.581ZM100.76 225.463C101.145 225.463 101.488 225.373 101.788 225.193C102.088 225.013 102.323 224.769 102.495 224.46C102.666 224.143 102.752 223.784 102.752 223.381C102.752 222.987 102.662 222.636 102.482 222.327C102.31 222.019 102.075 221.779 101.775 221.608C101.484 221.428 101.145 221.338 100.76 221.338C100.374 221.338 100.032 221.428 99.732 221.608C99.4321 221.779 99.1965 222.019 99.0252 222.327C98.8539 222.636 98.7682 222.987 98.7682 223.381C98.7682 223.784 98.8539 224.143 99.0252 224.46C99.1965 224.769 99.4321 225.013 99.732 225.193C100.032 225.373 100.374 225.463 100.76 225.463ZM106 226.452V217.791H107.156V226.452H106ZM104.496 221.402V220.348H108.659V221.402H104.496ZM112.431 226.581C111.823 226.581 111.275 226.444 110.786 226.169C110.298 225.887 109.913 225.506 109.63 225.026C109.347 224.546 109.206 224.002 109.206 223.394C109.206 222.794 109.343 222.255 109.617 221.775C109.9 221.295 110.277 220.918 110.748 220.644C111.227 220.361 111.763 220.22 112.354 220.22C112.919 220.22 113.416 220.348 113.845 220.605C114.281 220.862 114.62 221.218 114.86 221.672C115.108 222.126 115.232 222.64 115.232 223.214C115.232 223.3 115.228 223.394 115.219 223.497C115.211 223.591 115.194 223.702 115.168 223.831H110.015V222.867H114.551L114.127 223.24C114.127 222.829 114.054 222.482 113.909 222.199C113.763 221.908 113.558 221.685 113.292 221.531C113.026 221.368 112.705 221.287 112.328 221.287C111.934 221.287 111.587 221.372 111.287 221.544C110.988 221.715 110.756 221.955 110.594 222.263C110.431 222.572 110.349 222.936 110.349 223.355C110.349 223.784 110.435 224.161 110.606 224.486C110.778 224.803 111.022 225.052 111.339 225.231C111.656 225.403 112.02 225.488 112.431 225.488C112.774 225.488 113.086 225.428 113.369 225.309C113.66 225.189 113.909 225.009 114.114 224.769L114.86 225.527C114.568 225.87 114.209 226.131 113.78 226.311C113.361 226.491 112.911 226.581 112.431 226.581ZM116.493 226.452V220.348H117.65V226.452H116.493ZM117.65 222.97L117.213 222.777C117.213 221.998 117.393 221.376 117.753 220.914C118.112 220.451 118.631 220.22 119.307 220.22C119.616 220.22 119.894 220.276 120.143 220.387C120.391 220.49 120.622 220.665 120.837 220.914L120.078 221.698C119.95 221.561 119.809 221.462 119.654 221.402C119.5 221.342 119.32 221.312 119.115 221.312C118.686 221.312 118.335 221.449 118.061 221.723C117.787 221.998 117.65 222.413 117.65 222.97Z" fill="#B9B9B9"/>
<path d="M144.946 20.7666L144.946 29.3331" stroke="#E4E4E4" stroke-width="1.60623" stroke-linecap="round" stroke-linejoin="round"/>
<path d="M140.663 25.0498H149.23" stroke="#E4E4E4" stroke-width="1.60623" stroke-linecap="round" stroke-linejoin="round"/>
</g>
<defs>
<clipPath id="clip0_39_85">
<rect x="5.74023" y="5.77539" width="158.481" height="328.741" rx="26.7704" fill="white"/>
</clipPath>
<clipPath id="clip1_39_85">
<rect x="16.4482" y="78.5908" width="137.065" height="113.507" rx="21.4163" fill="white"/>
</clipPath>
<clipPath id="clip2_39_85">
<rect x="16.4482" y="47.5371" width="25.6996" height="25.6996" rx="12.8498" fill="white"/>
</clipPath>
<clipPath id="clip3_39_85">
<rect x="16.4482" y="250.992" width="25.6996" height="25.6996" rx="12.8498" fill="white"/>
</clipPath>
<clipPath id="clip4_39_85">
<rect x="16.4482" y="282.046" width="137.065" height="113.507" rx="21.4163" fill="white"/>
</clipPath>
</defs>
</svg>
