<svg width="192" height="325" viewBox="0 0 192 325" fill="none" xmlns="http://www.w3.org/2000/svg">
<path opacity="0.7" d="M109.957 81.877V149.975" stroke="#A64CED" stroke-width="163.436" stroke-linecap="round"/>
<path d="M135.153 69.6191C133.11 77.7909 119.491 88.0056 109.276 88.0056" stroke="black" stroke-width="2.72393" stroke-linecap="round" stroke-linejoin="round"/>
<path d="M158.617 115.246C156.12 124.779 148.403 140.987 137.507 129.546C123.887 115.246 109.587 94.1351 95.286 92.7732C80.9854 91.4112 72.8137 96.1781 74.8565 101.626C76.2222 105.268 82.4577 105.664 88.4761 105.458M96.6478 105.031C94.3906 105.106 91.46 105.356 88.4761 105.458M103.458 114.565C100.734 115.517 97.3289 115.553 95.286 115.517M88.4761 105.458C78.2614 107.074 79.6233 115.246 95.286 115.517M95.286 115.517C85.7522 117.289 88.4761 124.098 96.6478 125.524M102.096 125.46C99.9553 125.838 98.1407 125.82 96.6478 125.524M96.6478 125.524C91.6219 128.822 93.0072 133.995 100.053 134.624M105.501 134.313C103.417 134.681 101.599 134.762 100.053 134.624M100.053 134.624C115.715 168.362 152.488 181.982 179.047 156.104" stroke="black" stroke-width="2.72393" stroke-linecap="round"/>
<circle cx="88.8468" cy="64.8531" r="3.40491" fill="black"/>
<circle cx="117.448" cy="59.4049" r="3.40491" fill="black"/>
<path d="M107.233 228.97V322.945H50.0308L56.2754 317.481C59.2311 314.895 60.9265 311.158 60.9265 307.231V212.626" stroke="black" stroke-width="2.72393" stroke-linecap="round" stroke-linejoin="round"/>
<path d="M112.681 228.97V322.945H169.883L163.639 317.481C160.683 314.895 158.988 311.158 158.988 307.231V212.626" stroke="black" stroke-width="2.72393" stroke-linecap="round" stroke-linejoin="round"/>
<path d="M43.7096 70.0304C42.1914 78.2327 41.5621 86.554 40.4031 94.8131" stroke="white" stroke-width="2.72393" stroke-miterlimit="1.5" stroke-linecap="round" stroke-linejoin="round"/>
<path d="M65.2132 61.4476C58.3144 72.9674 52.5619 85.4292 47.4822 97.8533" stroke="white" stroke-width="2.72393" stroke-miterlimit="1.5" stroke-linecap="round" stroke-linejoin="round"/>
<path d="M77.5907 81.4368C69.6681 86.1174 60.6166 96.0362 53.8012 102.663" stroke="white" stroke-width="2.72393" stroke-miterlimit="1.5" stroke-linecap="round" stroke-linejoin="round"/>
<rect opacity="0.7" x="1" y="108.539" width="50.3926" height="93.9755" rx="13.6196" transform="rotate(-15 1 108.539)" fill="#2FDBBC"/>
<rect opacity="0.7" x="7.67236" y="112.392" width="14.1886" height="21.0342" rx="7.09432" transform="rotate(-15 7.67236 112.392)" fill="#2FDBBC"/>
<path d="M42.7493 140.121C41.2545 133.442 14.6198 132.872 6.44803 146.207C-1.72374 159.542 2.57092 180.125 16.1909 184.336C29.8108 188.547 46.1542 183.634 46.8352 177.318C47.38 172.265 35.7302 172.877 29.6014 172.877C36.4112 172.175 47.9879 172.405 46.8352 166.79C45.6826 161.176 32.5346 162.813 26.4058 163.281C33.6696 162.111 47.9879 161.647 46.8352 154.859C45.6826 148.071 31.8713 150.652 24.8345 151.822C32.5523 149.716 44.583 148.312 42.7493 140.121Z" fill="#BE7FEF" stroke="black" stroke-width="2.72393" stroke-linecap="round" stroke-linejoin="round"/>
</svg>
