<svg width="244" height="252" viewBox="0 0 244 252" fill="none" xmlns="http://www.w3.org/2000/svg">
<path opacity="0.7" d="M137.231 80.6729H163.847" stroke="#2FDBBC" stroke-width="159.698" stroke-linecap="round"/>
<path d="M169.382 46.0093C168.016 50.512 158.04 55.8448 151.908 52.8416" stroke="black" stroke-width="2.66164" stroke-linecap="round" stroke-linejoin="round"/>
<circle cx="133.904" cy="41.414" r="3.32705" fill="black"/>
<circle cx="161.851" cy="36.0907" r="3.32705" fill="black"/>
<path d="M150.539 157.86L135.9 249.686H89.3213L96.0658 243.785C98.5753 241.589 100.169 238.531 100.532 235.216L109.284 155.198" stroke="black" stroke-width="2.66164" stroke-linecap="round" stroke-linejoin="round"/>
<path d="M150.539 157.86V249.686H197.118L191.398 244.682C188.291 241.963 186.622 237.957 186.88 233.836L191.794 155.198" stroke="black" stroke-width="2.66164" stroke-linecap="round" stroke-linejoin="round"/>
<path d="M28.7434 38.7624C49.1213 38.7983 48.5421 52.5692 26.2971 47.2718C32.8083 49.0892 42.713 51.1705 39.6777 56.2734C36.6424 61.3762 24.9465 55.9379 24.9465 55.9379C33.2043 60.4414 35.3608 63.8507 32.5115 66.3224C31.2659 67.4029 29.1404 67.8263 26.6717 67.6302M85.3044 65.3364C58.6698 78.1375 52.1523 58.1576 50.0648 48.5567C47.9774 38.9558 55.2297 11.3666 45.9766 9.98397C38.5351 8.87202 36.2201 18.3011 36.8017 33.0492C32.6952 31.1329 14.25 31.1521 10.1499 47.3982C7.01492 59.8199 18.6534 66.9931 26.6717 67.6302M80.5907 98.4492C57.1775 103.516 35.3185 95.7381 26.6717 67.6302" stroke="black" stroke-width="2.66164" stroke-linecap="round" stroke-linejoin="round"/>
</svg>
